<?xml version="1.0" encoding="UTF-8" standalone="no"?>
<!-- Created with Inkscape (http://www.inkscape.org/) -->

<svg
   xmlns:dc="http://purl.org/dc/elements/1.1/"
   xmlns:cc="http://creativecommons.org/ns#"
   xmlns:rdf="http://www.w3.org/1999/02/22-rdf-syntax-ns#"
   xmlns:svg="http://www.w3.org/2000/svg"
   xmlns="http://www.w3.org/2000/svg"
   xmlns:sodipodi="http://sodipodi.sourceforge.net/DTD/sodipodi-0.dtd"
   xmlns:inkscape="http://www.inkscape.org/namespaces/inkscape"
   width="250"
   height="200"
   viewBox="0 0 250 200"
   id="svg4581"
   version="1.1"
   inkscape:version="0.91 r13725"
   sodipodi:docname="logo.svg">
  <defs
     id="defs4583" />
  <sodipodi:namedview
     id="base"
     pagecolor="#ffffff"
     bordercolor="#666666"
     borderopacity="1.0"
     inkscape:pageopacity="0.0"
     inkscape:pageshadow="2"
     inkscape:zoom="1.4"
     inkscape:cx="292.98344"
     inkscape:cy="219.84324"
     inkscape:document-units="px"
     inkscape:current-layer="layer1"
     showgrid="true"
     objecttolerance="10000"
     inkscape:window-width="1920"
     inkscape:window-height="1017"
     inkscape:window-x="-8"
     inkscape:window-y="-8"
     inkscape:window-maximized="1"
     units="px"
     showborder="true">
    <inkscape:grid
       type="xygrid"
       id="grid5228" />
  </sodipodi:namedview>
  <metadata
     id="metadata4586">
    <rdf:RDF>
      <cc:Work
         rdf:about="">
        <dc:format>image/svg+xml</dc:format>
        <dc:type
           rdf:resource="http://purl.org/dc/dcmitype/StillImage" />
        <dc:title></dc:title>
      </cc:Work>
    </rdf:RDF>
  </metadata>
  <g
     inkscape:label="Layer 1"
     inkscape:groupmode="layer"
     id="layer1"
     transform="translate(0,-852.36229)">
    <g
       style="font-style:normal;font-variant:normal;font-weight:normal;font-stretch:normal;font-size:25px;line-height:125%;font-family:Nasalization;-inkscape-font-specification:'Nasalization, Normal';text-align:start;letter-spacing:0px;word-spacing:0px;writing-mode:lr-tb;text-anchor:start;fill:#000000;fill-opacity:1;stroke:none;stroke-width:1px;stroke-linecap:butt;stroke-linejoin:miter;stroke-opacity:1"
       id="text4138">
      <path
         sodipodi:type="inkscape:offset"
         inkscape:radius="0"
         inkscape:original="M 80.529297 956.41602 C 79.300456 956.41602 78.291341 956.68913 77.501953 957.23438 C 76.590494 957.86914 76.134766 958.79329 76.134766 960.00586 L 76.134766 973.28711 L 79.810547 973.28711 L 79.810547 960.85938 C 79.810547 960.62337 79.850261 960.44075 79.931641 960.31055 C 80.021159 960.18037 80.183919 960.0863 80.419922 960.0293 C 80.769857 959.98047 81.218425 960.70215 81.763672 962.19141 C 82.146159 963.22494 82.60905 964.74219 83.154297 966.74414 C 83.740235 968.88444 84.069336 970.0599 84.142578 970.27148 C 84.500651 971.35384 85.115559 972.18392 85.986328 972.76172 C 86.75944 973.27442 87.638347 973.53125 88.623047 973.53125 C 89.754232 973.53125 90.727214 973.20931 91.541016 972.56641 C 92.403646 971.88281 92.833984 971.01302 92.833984 969.95508 L 92.833984 956.59961 L 89.148438 956.59961 L 89.148438 969.02734 C 89.148437 969.27962 89.083334 969.47851 88.953125 969.625 C 88.822917 969.76335 88.667318 969.83203 88.488281 969.83203 C 88.341797 969.83203 88.200846 969.78679 88.0625 969.69727 C 87.924153 969.60775 87.813802 969.47754 87.732422 969.30664 C 87.431315 968.63933 86.95573 966.95573 86.304688 964.25391 C 85.71875 961.78809 85.10026 960.00488 84.449219 958.90625 C 83.472656 957.2461 82.165039 956.41602 80.529297 956.41602 z M 20.177734 956.72266 C 18.769857 956.72266 17.652344 957.24707 16.822266 958.29688 C 16.081706 959.23275 15.710938 960.37923 15.710938 961.73828 C 15.710938 963.09733 16.085286 964.24935 16.833984 965.19336 C 17.655924 966.23503 18.769857 966.75586 20.177734 966.75586 L 25.378906 966.75586 C 25.77767 966.75586 26.083333 966.90234 26.294922 967.19531 C 26.506511 967.48014 26.611328 967.82194 26.611328 968.2207 C 26.611328 968.63574 26.506511 968.99024 26.294922 969.2832 C 26.058919 969.60872 25.753256 969.77148 25.378906 969.77148 L 16.529297 969.77148 L 16.529297 973.28711 L 25.976562 973.28711 C 27.38444 973.28711 28.494791 972.7627 29.308594 971.71289 C 30.041015 970.76888 30.408203 969.60774 30.408203 968.23242 C 30.408203 966.86523 30.037435 965.70605 29.296875 964.75391 C 28.483073 963.7041 27.376302 963.17969 25.976562 963.17969 L 20.789062 963.17969 C 20.374023 963.17969 20.052083 963.03678 19.824219 962.75195 C 19.604492 962.46712 19.494141 962.12532 19.494141 961.72656 C 19.494141 961.31966 19.608073 960.96517 19.835938 960.66406 C 20.07194 960.36296 20.390299 960.21289 20.789062 960.21289 L 29.601562 960.21289 L 29.601562 956.72266 L 20.177734 956.72266 z M 30.578125 956.72266 L 30.578125 960.21289 L 34.314453 960.21289 L 34.314453 973.28711 L 37.927734 973.28711 L 37.927734 960.21289 L 41.675781 960.21289 L 41.675781 956.72266 L 30.578125 956.72266 z M 42.908203 956.72266 L 42.908203 960.21289 L 51.734375 960.21289 C 52.149414 960.21289 52.474936 960.37207 52.710938 960.68945 C 52.922526 960.97429 53.027344 961.31966 53.027344 961.72656 C 53.027344 962.12532 52.922526 962.45996 52.710938 962.72852 C 52.474936 963.02962 52.149414 963.17969 51.734375 963.17969 L 47.242188 963.17969 C 45.769206 963.17969 44.65332 963.65169 43.896484 964.5957 C 43.237304 965.41764 42.908203 966.48828 42.908203 967.80664 L 42.908203 973.28711 L 46.521484 973.28711 L 46.521484 969.17383 L 56.945312 973.66602 L 56.945312 969.74609 L 50.060547 966.75586 L 52.34375 966.75586 C 53.759766 966.75586 54.879232 966.23503 55.701172 965.19336 C 56.441732 964.25749 56.8125 963.10547 56.8125 961.73828 C 56.8125 960.37923 56.438151 959.22917 55.689453 958.28516 C 54.867513 957.24349 53.751628 956.72266 52.34375 956.72266 L 42.908203 956.72266 z M 63.513672 956.72266 C 61.601237 956.72266 60.07487 957.60156 58.935547 959.35938 C 57.910156 960.94629 57.398438 962.87402 57.398438 965.14453 C 57.398438 967.36621 57.902995 969.23438 58.912109 970.74805 C 60.035157 972.44076 61.568685 973.28711 63.513672 973.28711 L 68.921875 973.28711 C 70.875 973.28711 72.412109 972.44076 73.535156 970.74805 C 74.536133 969.24251 75.037109 967.37434 75.037109 965.14453 C 75.037109 962.87402 74.523438 960.94629 73.498047 959.35938 C 72.358724 957.60156 70.83431 956.72266 68.921875 956.72266 L 63.513672 956.72266 z M 100.20703 956.72266 C 98.294595 956.72266 96.770183 957.60156 95.630859 959.35938 C 94.605469 960.94629 94.091797 962.87402 94.091797 965.14453 C 94.091797 967.36621 94.596354 969.23438 95.605469 970.74805 C 96.728516 972.44076 98.262043 973.28711 100.20703 973.28711 L 102.27148 973.28711 L 104.6875 973.28711 C 106.09537 973.28711 107.20572 972.7627 108.01953 971.71289 C 108.75195 970.76888 109.11914 969.60774 109.11914 968.23242 C 109.11914 966.86523 108.74837 965.70605 108.00781 964.75391 C 107.19401 963.7041 106.08724 963.17969 104.6875 963.17969 L 102.27148 963.17969 L 102.27148 966.75586 L 104.08984 966.75586 C 104.48861 966.75586 104.79427 966.90234 105.00586 967.19531 C 105.21745 967.48014 105.32227 967.82194 105.32227 968.2207 C 105.32227 968.63574 105.21745 968.99024 105.00586 969.2832 C 104.76986 969.60872 104.4642 969.77148 104.08984 969.77148 L 102.27148 969.77148 L 100.81836 969.69727 C 99.939452 969.69727 99.239583 969.18913 98.71875 968.17188 C 98.246745 967.25228 98.009766 966.14193 98.009766 964.83984 C 98.009766 963.57845 98.243164 962.51692 98.707031 961.6543 C 99.219727 960.69401 99.923176 960.21289 100.81836 960.21289 L 108.3125 960.21289 L 108.3125 956.72266 L 100.20703 956.72266 z M 123.81641 956.72266 L 123.81641 960.21289 L 132.64258 960.21289 C 133.05762 960.21289 133.38314 960.37207 133.61914 960.68945 C 133.83073 960.97429 133.93555 961.31966 133.93555 961.72656 C 133.93555 962.12532 133.83073 962.45996 133.61914 962.72852 C 133.38314 963.02962 133.05762 963.17969 132.64258 963.17969 L 128.15039 963.17969 C 126.67741 963.17969 125.56153 963.65169 124.80469 964.5957 C 124.14551 965.41764 123.81641 966.48828 123.81641 967.80664 L 123.81641 973.28711 L 127.42969 973.28711 L 127.42969 969.17383 L 137.85352 973.66602 L 137.85352 969.74609 L 130.96875 966.75586 L 133.25195 966.75586 C 134.66797 966.75586 135.78743 966.23503 136.60938 965.19336 C 137.34994 964.25749 137.7207 963.10547 137.7207 961.73828 C 137.7207 960.37923 137.34635 959.22917 136.59766 958.28516 C 135.77572 957.24349 134.65983 956.72266 133.25195 956.72266 L 123.81641 956.72266 z M 143.46875 956.72266 C 142.06087 956.72266 140.94336 957.24707 140.11328 958.29688 C 139.36459 959.24089 138.99023 960.39291 138.99023 961.75195 C 138.99023 962.32161 139.07161 962.89127 139.23438 963.46094 C 139.40527 964.0306 139.6403 964.52962 139.94141 964.96094 C 139.62403 965.41666 139.38346 965.92122 139.2207 966.47461 C 139.06608 967.01986 138.99023 967.58951 138.99023 968.18359 C 138.99023 969.54264 139.36459 970.69466 140.11328 971.63867 C 140.94336 972.68034 142.06087 973.20117 143.46875 973.20117 L 152.89258 973.20117 L 152.89258 969.625 L 144.08008 969.625 C 143.66504 969.625 143.3431 969.4821 143.11523 969.19727 C 142.89551 968.91243 142.78516 968.57063 142.78516 968.17188 C 142.78516 967.8545 142.85579 967.57064 142.99414 967.31836 C 143.13249 967.05794 143.3278 966.86979 143.58008 966.75586 L 152.89258 966.75586 L 152.89258 966.6582 L 152.89258 963.17969 L 144.08008 963.17969 C 143.66504 963.17969 143.3431 963.03678 143.11523 962.75195 C 142.89551 962.46712 142.78516 962.12532 142.78516 961.72656 C 142.78516 961.31966 142.89909 960.96517 143.12695 960.66406 C 143.36295 960.36296 143.68131 960.21289 144.08008 960.21289 L 152.89258 960.21289 L 152.89258 956.72266 L 143.46875 956.72266 z M 158.94727 956.72266 C 157.53939 956.72266 156.42187 957.24707 155.5918 958.29688 C 154.85124 959.23275 154.48047 960.37923 154.48047 961.73828 C 154.48047 963.09733 154.85482 964.24935 155.60352 965.19336 C 156.42546 966.23503 157.53939 966.75586 158.94727 966.75586 L 164.14844 966.75586 C 164.5472 966.75586 164.85287 966.90234 165.06445 967.19531 C 165.27605 967.48014 165.38086 967.82194 165.38086 968.2207 C 165.38086 968.63574 165.27605 968.99024 165.06445 969.2832 C 164.82845 969.60872 164.52278 969.77148 164.14844 969.77148 L 155.29883 969.77148 L 155.29883 973.28711 L 164.74609 973.28711 C 166.15397 973.28711 167.26432 972.7627 168.07812 971.71289 C 168.81055 970.76888 169.17773 969.60774 169.17773 968.23242 C 169.17773 966.86523 168.80697 965.70605 168.06641 964.75391 C 167.25261 963.7041 166.14583 963.17969 164.74609 963.17969 L 159.55859 963.17969 C 159.14355 963.17969 158.82161 963.03678 158.59375 962.75195 C 158.37402 962.46712 158.26367 962.12532 158.26367 961.72656 C 158.26367 961.31966 158.37761 960.96517 158.60547 960.66406 C 158.84148 960.36296 159.15983 960.21289 159.55859 960.21289 L 168.37109 960.21289 L 168.37109 956.72266 L 158.94727 956.72266 z M 175.30469 956.72266 C 173.39225 956.72266 171.86784 957.60156 170.72852 959.35938 C 169.70312 960.94629 169.18945 962.87402 169.18945 965.14453 C 169.18945 967.36621 169.69401 969.23438 170.70312 970.74805 C 171.82617 972.44076 173.3597 973.28711 175.30469 973.28711 L 180.71289 973.28711 C 182.66602 973.28711 184.20508 972.44076 185.32812 970.74805 C 186.3291 969.24251 186.82812 967.37434 186.82812 965.14453 C 186.82812 962.87402 186.31641 960.94629 185.29102 959.35938 C 184.1517 957.60156 182.62532 956.72266 180.71289 956.72266 L 175.30469 956.72266 z M 187.90234 956.72266 L 187.90234 964.49805 C 187.88608 964.58757 187.87532 964.69238 187.86719 964.81445 C 187.85905 964.93652 187.85352 965.09928 187.85352 965.30273 C 187.85352 966.40137 187.98372 967.41602 188.24414 968.34375 C 188.6429 969.75976 189.32292 970.87728 190.2832 971.69922 C 191.52018 972.75717 193.18034 973.28711 195.26367 973.28711 L 201.86719 973.28711 L 201.86719 969.69727 L 195.26367 969.69727 C 194.06739 969.69727 193.13249 969.14388 192.45703 968.03711 C 191.8711 967.07682 191.57812 965.89779 191.57812 964.49805 L 191.57812 956.72266 L 187.90234 956.72266 z M 224.2793 956.72266 C 222.87142 956.72266 221.75391 957.24707 220.92383 958.29688 C 220.17513 959.24089 219.80078 960.39291 219.80078 961.75195 C 219.80078 962.32161 219.88216 962.89127 220.04492 963.46094 C 220.21582 964.0306 220.45085 964.52962 220.75195 964.96094 C 220.43457 965.41666 220.19401 965.92122 220.03125 966.47461 C 219.87662 967.01986 219.80078 967.58951 219.80078 968.18359 C 219.80078 969.54264 220.17513 970.69466 220.92383 971.63867 C 221.75391 972.68034 222.87142 973.20117 224.2793 973.20117 L 233.70312 973.20117 L 233.70312 969.625 L 224.89062 969.625 C 224.47559 969.625 224.15365 969.4821 223.92578 969.19727 C 223.70605 968.91243 223.5957 968.57064 223.5957 968.17188 C 223.5957 967.8545 223.66634 967.57064 223.80469 967.31836 C 223.94303 967.05794 224.13834 966.86979 224.39062 966.75586 L 233.70312 966.75586 L 233.70312 966.6582 L 233.70312 963.17969 L 224.89062 963.17969 C 224.47559 963.17969 224.15365 963.03678 223.92578 962.75195 C 223.70605 962.46712 223.5957 962.12532 223.5957 961.72656 C 223.5957 961.31966 223.70963 960.96517 223.9375 960.66406 C 224.1735 960.36296 224.49186 960.21289 224.89062 960.21289 L 233.70312 960.21289 L 233.70312 956.72266 L 224.2793 956.72266 z M 202.66211 956.84375 C 203.15039 958.43066 203.64225 960.01302 204.13867 961.5918 C 205.00944 964.36686 205.72558 966.59668 206.28711 968.28125 C 207.06022 970.60059 207.54851 971.89551 207.75195 972.16406 C 208.07747 972.63607 208.54948 972.99414 209.16797 973.23828 C 209.7946 973.48242 210.46907 973.60352 211.19336 973.60352 C 211.9095 973.60352 212.58594 973.47884 213.2207 973.22656 C 213.86361 972.97428 214.34278 972.61979 214.66016 972.16406 C 214.85547 971.87923 215.34017 970.58072 216.11328 968.26953 C 216.73177 966.41406 217.4515 964.18424 218.27344 961.58008 C 218.92448 959.51302 219.40918 957.93424 219.72656 956.84375 L 215.75977 956.84375 L 211.53516 969.71094 C 211.47006 969.84928 211.35254 969.91797 211.18164 969.91797 C 211.01887 969.91797 210.92479 969.84928 210.90039 969.71094 L 206.5918 956.84375 L 202.66211 956.84375 z M 64.123047 960.21289 L 68.310547 960.21289 C 69.213868 960.21289 69.922852 960.69401 70.435547 961.6543 C 70.899414 962.51692 71.130859 963.57845 71.130859 964.83984 C 71.130859 966.14193 70.8903 967.25228 70.410156 968.17188 C 69.881185 969.18913 69.181316 969.69727 68.310547 969.69727 L 64.123047 969.69727 C 63.24414 969.69727 62.544271 969.18913 62.023438 968.17188 C 61.551432 967.25228 61.316406 966.14193 61.316406 964.83984 C 61.316406 963.57845 61.547851 962.51692 62.011719 961.6543 C 62.524414 960.69401 63.227864 960.21289 64.123047 960.21289 z M 175.91602 960.21289 L 180.10352 960.21289 C 181.00684 960.21289 181.71387 960.69401 182.22656 961.6543 C 182.69043 962.51692 182.92188 963.57845 182.92188 964.83984 C 182.92188 966.14193 182.68326 967.25228 182.20312 968.17188 C 181.67415 969.18913 180.97428 969.69727 180.10352 969.69727 L 175.91602 969.69727 C 175.03712 969.69727 174.33724 969.18913 173.81641 968.17188 C 173.3444 967.25228 173.10742 966.14193 173.10742 964.83984 C 173.10742 963.57845 173.34082 962.51692 173.80469 961.6543 C 174.31738 960.69401 175.02084 960.21289 175.91602 960.21289 z "
         style="font-style:normal;font-variant:normal;font-weight:normal;font-stretch:normal;font-size:25px;line-height:125%;font-family:Nasalization;-inkscape-font-specification:'Nasalization, Normal';text-align:start;writing-mode:lr-tb;text-anchor:start;fill:#000000;fill-opacity:1"
         id="path5346"
         d="m 80.529297,956.41602 c -1.228841,0 -2.237956,0.27311 -3.027344,0.81836 -0.911459,0.63476 -1.367187,1.55891 -1.367187,2.77148 l 0,13.28125 3.675781,0 0,-12.42773 c 0,-0.23601 0.03971,-0.41863 0.121094,-0.54883 0.08952,-0.13018 0.252278,-0.22425 0.488281,-0.28125 0.349935,-0.0488 0.798503,0.67285 1.34375,2.16211 0.382487,1.03353 0.845378,2.55078 1.390625,4.55273 0.585938,2.1403 0.915039,3.31576 0.988281,3.52734 0.358073,1.08236 0.972981,1.91244 1.84375,2.49024 0.773112,0.5127 1.652019,0.76953 2.636719,0.76953 1.131185,0 2.104167,-0.32194 2.917969,-0.96484 0.86263,-0.6836 1.292968,-1.55339 1.292968,-2.61133 l 0,-13.35547 -3.685546,0 0,12.42773 c -10e-7,0.25228 -0.0651,0.45117 -0.195313,0.59766 -0.130208,0.13835 -0.285807,0.20703 -0.464844,0.20703 -0.146484,0 -0.287435,-0.0452 -0.425781,-0.13476 -0.138347,-0.0895 -0.248698,-0.21973 -0.330078,-0.39063 -0.301107,-0.66731 -0.776692,-2.35091 -1.427734,-5.05273 -0.585938,-2.46582 -1.204428,-4.24903 -1.855469,-5.34766 -0.976563,-1.66015 -2.28418,-2.49023 -3.919922,-2.49023 z m -60.351563,0.30664 c -1.407877,0 -2.52539,0.52441 -3.355468,1.57422 -0.74056,0.93587 -1.111328,2.08235 -1.111328,3.4414 0,1.35905 0.374348,2.51107 1.123046,3.45508 0.82194,1.04167 1.935873,1.5625 3.34375,1.5625 l 5.201172,0 c 0.398764,0 0.704427,0.14648 0.916016,0.43945 0.211589,0.28483 0.316406,0.62663 0.316406,1.02539 0,0.41504 -0.104817,0.76954 -0.316406,1.0625 -0.236003,0.32552 -0.541666,0.48828 -0.916016,0.48828 l -8.849609,0 0,3.51563 9.447265,0 c 1.407878,0 2.518229,-0.52441 3.332032,-1.57422 0.732421,-0.94401 1.099609,-2.10515 1.099609,-3.48047 0,-1.36719 -0.370768,-2.52637 -1.111328,-3.47851 -0.813802,-1.04981 -1.920573,-1.57422 -3.320313,-1.57422 l -5.1875,0 c -0.415039,0 -0.736979,-0.14291 -0.964843,-0.42774 -0.219727,-0.28483 -0.330078,-0.62663 -0.330078,-1.02539 0,-0.4069 0.113932,-0.76139 0.341797,-1.0625 0.236002,-0.3011 0.554361,-0.45117 0.953124,-0.45117 l 8.8125,0 0,-3.49023 -9.423828,0 z m 10.400391,0 0,3.49023 3.736328,0 0,13.07422 3.613281,0 0,-13.07422 3.748047,0 0,-3.49023 -11.097656,0 z m 12.330078,0 0,3.49023 8.826172,0 c 0.415039,0 0.740561,0.15918 0.976563,0.47656 0.211588,0.28484 0.316406,0.63021 0.316406,1.03711 0,0.39876 -0.104818,0.7334 -0.316406,1.00196 -0.236002,0.3011 -0.561524,0.45117 -0.976563,0.45117 l -4.492187,0 c -1.472982,0 -2.588868,0.472 -3.345704,1.41601 -0.65918,0.82194 -0.988281,1.89258 -0.988281,3.21094 l 0,5.48047 3.613281,0 0,-4.11328 10.423828,4.49219 0,-3.91993 -6.884765,-2.99023 2.283203,0 c 1.416016,0 2.535482,-0.52083 3.357422,-1.5625 0.74056,-0.93587 1.111328,-2.08789 1.111328,-3.45508 0,-1.35905 -0.374349,-2.50911 -1.123047,-3.45312 -0.82194,-1.04167 -1.937825,-1.5625 -3.345703,-1.5625 l -9.435547,0 z m 20.605469,0 c -1.912435,0 -3.438802,0.8789 -4.578125,2.63672 -1.025391,1.58691 -1.537109,3.51464 -1.537109,5.78515 0,2.22168 0.504557,4.08985 1.513671,5.60352 1.123048,1.69271 2.656576,2.53906 4.601563,2.53906 l 5.408203,0 c 1.953125,0 3.490234,-0.84635 4.613281,-2.53906 1.000977,-1.50554 1.501953,-3.37371 1.501953,-5.60352 0,-2.27051 -0.513671,-4.19824 -1.539062,-5.78515 -1.139323,-1.75782 -2.663737,-2.63672 -4.576172,-2.63672 l -5.408203,0 z m 36.693358,0 c -1.912435,0 -3.436847,0.8789 -4.576171,2.63672 -1.02539,1.58691 -1.539062,3.51464 -1.539062,5.78515 0,2.22168 0.504557,4.08985 1.513672,5.60352 1.123047,1.69271 2.656574,2.53906 4.601561,2.53906 l 2.06445,0 2.41602,0 c 1.40787,0 2.51822,-0.52441 3.33203,-1.57422 0.73242,-0.94401 1.09961,-2.10515 1.09961,-3.48047 0,-1.36719 -0.37077,-2.52637 -1.11133,-3.47851 -0.8138,-1.04981 -1.92057,-1.57422 -3.32031,-1.57422 l -2.41602,0 0,3.57617 1.81836,0 c 0.39877,0 0.70443,0.14648 0.91602,0.43945 0.21159,0.28483 0.31641,0.62663 0.31641,1.02539 0,0.41504 -0.10482,0.76954 -0.31641,1.0625 -0.236,0.32552 -0.54166,0.48828 -0.91602,0.48828 l -1.81836,0 -1.45312,-0.0742 c -0.878908,0 -1.578777,-0.50814 -2.09961,-1.52539 -0.472005,-0.9196 -0.708984,-2.02995 -0.708984,-3.33204 0,-1.26139 0.233398,-2.32292 0.697265,-3.18554 0.512696,-0.96029 1.216145,-1.44141 2.111329,-1.44141 l 7.49414,0 0,-3.49023 -8.10547,0 z m 23.60938,0 0,3.49023 8.82617,0 c 0.41504,0 0.74056,0.15918 0.97656,0.47656 0.21159,0.28484 0.31641,0.63021 0.31641,1.03711 0,0.39876 -0.10482,0.7334 -0.31641,1.00196 -0.236,0.3011 -0.56152,0.45117 -0.97656,0.45117 l -4.49219,0 c -1.47298,0 -2.58886,0.472 -3.3457,1.41601 -0.65918,0.82194 -0.98828,1.89258 -0.98828,3.21094 l 0,5.48047 3.61328,0 0,-4.11328 10.42383,4.49219 0,-3.91993 -6.88477,-2.99023 2.2832,0 c 1.41602,0 2.53548,-0.52083 3.35743,-1.5625 0.74056,-0.93587 1.11132,-2.08789 1.11132,-3.45508 0,-1.35905 -0.37435,-2.50911 -1.12304,-3.45312 -0.82194,-1.04167 -1.93783,-1.5625 -3.34571,-1.5625 l -9.43554,0 z m 19.65234,0 c -1.40788,0 -2.52539,0.52441 -3.35547,1.57422 -0.74869,0.94401 -1.12305,2.09603 -1.12305,3.45507 0,0.56966 0.0814,1.13932 0.24415,1.70899 0.17089,0.56966 0.40592,1.06868 0.70703,1.5 -0.31738,0.45572 -0.55795,0.96028 -0.72071,1.51367 -0.15462,0.54525 -0.23047,1.1149 -0.23047,1.70898 0,1.35905 0.37436,2.51107 1.12305,3.45508 0.83008,1.04167 1.94759,1.5625 3.35547,1.5625 l 9.42383,0 0,-3.57617 -8.8125,0 c -0.41504,0 -0.73698,-0.1429 -0.96485,-0.42773 -0.21972,-0.28484 -0.33007,-0.62664 -0.33007,-1.02539 0,-0.31738 0.0706,-0.60124 0.20898,-0.85352 0.13835,-0.26042 0.33366,-0.44857 0.58594,-0.5625 l 9.3125,0 0,-0.0977 0,-3.47851 -8.8125,0 c -0.41504,0 -0.73698,-0.14291 -0.96485,-0.42774 -0.21972,-0.28483 -0.33007,-0.62663 -0.33007,-1.02539 0,-0.4069 0.11393,-0.76139 0.34179,-1.0625 0.236,-0.3011 0.55436,-0.45117 0.95313,-0.45117 l 8.8125,0 0,-3.49023 -9.42383,0 z m 15.47852,0 c -1.40788,0 -2.5254,0.52441 -3.35547,1.57422 -0.74056,0.93587 -1.11133,2.08235 -1.11133,3.4414 0,1.35905 0.37435,2.51107 1.12305,3.45508 0.82194,1.04167 1.93587,1.5625 3.34375,1.5625 l 5.20117,0 c 0.39876,0 0.70443,0.14648 0.91601,0.43945 0.2116,0.28483 0.31641,0.62663 0.31641,1.02539 0,0.41504 -0.10481,0.76954 -0.31641,1.0625 -0.236,0.32552 -0.54167,0.48828 -0.91601,0.48828 l -8.84961,0 0,3.51563 9.44726,0 c 1.40788,0 2.51823,-0.52441 3.33203,-1.57422 0.73243,-0.94401 1.09961,-2.10515 1.09961,-3.48047 0,-1.36719 -0.37076,-2.52637 -1.11132,-3.47851 -0.8138,-1.04981 -1.92058,-1.57422 -3.32032,-1.57422 l -5.1875,0 c -0.41504,0 -0.73698,-0.14291 -0.96484,-0.42774 -0.21973,-0.28483 -0.33008,-0.62663 -0.33008,-1.02539 0,-0.4069 0.11394,-0.76139 0.3418,-1.0625 0.23601,-0.3011 0.55436,-0.45117 0.95312,-0.45117 l 8.8125,0 0,-3.49023 -9.42382,0 z m 16.35742,0 c -1.91244,0 -3.43685,0.8789 -4.57617,2.63672 -1.0254,1.58691 -1.53907,3.51464 -1.53907,5.78515 0,2.22168 0.50456,4.08985 1.51367,5.60352 1.12305,1.69271 2.65658,2.53906 4.60157,2.53906 l 5.4082,0 c 1.95313,0 3.49219,-0.84635 4.61523,-2.53906 1.00098,-1.50554 1.5,-3.37371 1.5,-5.60352 0,-2.27051 -0.51171,-4.19824 -1.5371,-5.78515 -1.13932,-1.75782 -2.6657,-2.63672 -4.57813,-2.63672 l -5.4082,0 z m 12.59765,0 0,7.77539 c -0.0163,0.0895 -0.027,0.19433 -0.0352,0.3164 -0.008,0.12207 -0.0137,0.28483 -0.0137,0.48828 0,1.09864 0.1302,2.11329 0.39062,3.04102 0.39876,1.41601 1.07878,2.53353 2.03906,3.35547 1.23698,1.05795 2.89714,1.58789 4.98047,1.58789 l 6.60352,0 0,-3.58984 -6.60352,0 c -1.19628,0 -2.13118,-0.55339 -2.80664,-1.66016 -0.58593,-0.96029 -0.87891,-2.13932 -0.87891,-3.53906 l 0,-7.77539 -3.67578,0 z m 36.37696,0 c -1.40788,0 -2.52539,0.52441 -3.35547,1.57422 -0.7487,0.94401 -1.12305,2.09603 -1.12305,3.45507 0,0.56966 0.0814,1.13932 0.24414,1.70899 0.1709,0.56966 0.40593,1.06868 0.70703,1.5 -0.31738,0.45572 -0.55794,0.96028 -0.7207,1.51367 -0.15463,0.54525 -0.23047,1.1149 -0.23047,1.70898 0,1.35905 0.37435,2.51107 1.12305,3.45508 0.83008,1.04167 1.94759,1.5625 3.35547,1.5625 l 9.42382,0 0,-3.57617 -8.8125,0 c -0.41503,0 -0.73697,-0.1429 -0.96484,-0.42773 -0.21973,-0.28484 -0.33008,-0.62663 -0.33008,-1.02539 0,-0.31738 0.0706,-0.60124 0.20899,-0.85352 0.13834,-0.26042 0.33365,-0.44857 0.58593,-0.5625 l 9.3125,0 0,-0.0977 0,-3.47851 -8.8125,0 c -0.41503,0 -0.73697,-0.14291 -0.96484,-0.42774 -0.21973,-0.28483 -0.33008,-0.62663 -0.33008,-1.02539 0,-0.4069 0.11393,-0.76139 0.3418,-1.0625 0.236,-0.3011 0.55436,-0.45117 0.95312,-0.45117 l 8.8125,0 0,-3.49023 -9.42382,0 z m -21.61719,0.12109 c 0.48828,1.58691 0.98014,3.16927 1.47656,4.74805 0.87077,2.77506 1.58691,5.00488 2.14844,6.68945 0.77311,2.31934 1.2614,3.61426 1.46484,3.88281 0.32552,0.47201 0.79753,0.83008 1.41602,1.07422 0.62663,0.24414 1.3011,0.36524 2.02539,0.36524 0.71614,0 1.39258,-0.12468 2.02734,-0.37696 0.64291,-0.25228 1.12208,-0.60677 1.43946,-1.0625 0.19531,-0.28483 0.68001,-1.58334 1.45312,-3.89453 0.61849,-1.85547 1.33822,-4.08529 2.16016,-6.68945 0.65104,-2.06706 1.13574,-3.64584 1.45312,-4.73633 l -3.96679,0 -4.22461,12.86719 c -0.0651,0.13834 -0.18262,0.20703 -0.35352,0.20703 -0.16277,0 -0.25685,-0.0687 -0.28125,-0.20703 l -4.30859,-12.86719 -3.92969,0 z m -138.539063,3.36914 4.1875,0 c 0.903321,0 1.612305,0.48112 2.125,1.44141 0.463867,0.86262 0.695312,1.92415 0.695312,3.18554 0,1.30209 -0.240559,2.41244 -0.720703,3.33204 -0.528971,1.01725 -1.22884,1.52539 -2.099609,1.52539 l -4.1875,0 c -0.878907,0 -1.578776,-0.50814 -2.099609,-1.52539 -0.472006,-0.9196 -0.707032,-2.02995 -0.707032,-3.33204 0,-1.26139 0.231445,-2.32292 0.695313,-3.18554 0.512695,-0.96029 1.216145,-1.44141 2.111328,-1.44141 z m 111.792973,0 4.1875,0 c 0.90332,0 1.61035,0.48112 2.12304,1.44141 0.46387,0.86262 0.69532,1.92415 0.69532,3.18554 0,1.30209 -0.23862,2.41244 -0.71876,3.33204 -0.52897,1.01725 -1.22884,1.52539 -2.0996,1.52539 l -4.1875,0 c -0.8789,0 -1.57878,-0.50814 -2.09961,-1.52539 -0.47201,-0.9196 -0.70899,-2.02995 -0.70899,-3.33204 0,-1.26139 0.2334,-2.32292 0.69727,-3.18554 0.51269,-0.96029 1.21615,-1.44141 2.11133,-1.44141 z" />
    </g>
    <g
       style="font-style:normal;font-variant:normal;font-weight:normal;font-stretch:normal;font-size:80px;line-height:125%;font-family:Nasalization;-inkscape-font-specification:'Nasalization, Normal';text-align:start;letter-spacing:0px;word-spacing:0px;writing-mode:lr-tb;text-anchor:start;fill:#000000;fill-opacity:1;stroke:none;stroke-width:1px;stroke-linecap:butt;stroke-linejoin:miter;stroke-opacity:1"
       id="text5304">
      <path
         sodipodi:type="inkscape:offset"
         inkscape:radius="0"
         inkscape:original="M 91.699219 896.19922 C 87.194011 896.19922 83.613281 897.87891 80.957031 901.23828 C 78.587239 904.23307 77.402344 907.90495 77.402344 912.25391 C 77.402344 916.60287 78.60026 920.28776 80.996094 923.30859 C 83.626302 926.64193 87.194011 928.30859 91.699219 928.30859 L 108.33984 928.30859 C 109.61589 928.30859 110.59245 928.77734 111.26953 929.71484 C 111.94662 930.6263 112.28516 931.72005 112.28516 932.99609 C 112.28516 934.32421 111.94662 935.45703 111.26953 936.39453 C 110.51432 937.4362 109.53776 937.95703 108.33984 937.95703 L 80.019531 937.95703 L 80.019531 949.20703 L 110.25391 949.20703 C 114.75911 949.20703 118.3138 947.52734 120.91797 944.16797 C 123.26172 941.14714 124.43359 937.4362 124.43359 933.03516 C 124.43359 928.66016 123.24869 924.94922 120.87891 921.90234 C 118.27474 918.54296 114.73307 916.86328 110.25391 916.86328 L 93.652344 916.86328 C 92.324219 916.86328 91.295573 916.40755 90.566406 915.49609 C 89.863281 914.58463 89.511719 913.49088 89.511719 912.21484 C 89.511719 910.91276 89.876302 909.77995 90.605469 908.81641 C 91.360677 907.85287 92.376302 907.37109 93.652344 907.37109 L 121.85547 907.37109 L 121.85547 896.19922 L 91.699219 896.19922 z M 127.08984 896.19922 L 127.08984 907.37109 L 155.33203 907.37109 C 156.66016 907.37109 157.70182 907.87891 158.45703 908.89453 C 159.13412 909.80599 159.47266 910.91276 159.47266 912.21484 C 159.47266 913.49088 159.13412 914.5586 158.45703 915.41797 C 157.70182 916.38151 156.66016 916.86328 155.33203 916.86328 L 140.95703 916.86328 C 136.24349 916.86328 132.67578 918.3737 130.25391 921.39453 C 128.14453 924.02474 127.08984 927.44922 127.08984 931.66797 L 127.08984 949.20703 L 138.65234 949.20703 L 138.65234 936.04297 L 172.01172 950.41797 L 172.01172 937.87891 L 149.98047 928.30859 L 157.28516 928.30859 C 161.8164 928.30859 165.39714 926.64193 168.02734 923.30859 C 170.39714 920.3138 171.58203 916.62891 171.58203 912.25391 C 171.58203 907.90495 170.38411 904.22005 167.98828 901.19922 C 165.35807 897.86589 161.79036 896.19922 157.28516 896.19922 L 127.08984 896.19922 z "
         style="font-style:normal;font-variant:normal;font-weight:normal;font-stretch:normal;font-size:80px;line-height:125%;font-family:Nasalization;-inkscape-font-specification:'Nasalization, Normal';text-align:start;writing-mode:lr-tb;text-anchor:start;fill:#ff0000"
         id="path5316"
         d="m 91.699219,896.19922 c -4.505208,0 -8.085938,1.67969 -10.742188,5.03906 -2.369792,2.99479 -3.554687,6.66667 -3.554687,11.01563 0,4.34896 1.197916,8.03385 3.59375,11.05468 2.630208,3.33334 6.197917,5 10.703125,5 l 16.640621,0 c 1.27605,0 2.25261,0.46875 2.92969,1.40625 0.67709,0.91146 1.01563,2.00521 1.01563,3.28125 0,1.32812 -0.33854,2.46094 -1.01563,3.39844 -0.75521,1.04167 -1.73177,1.5625 -2.92969,1.5625 l -28.320309,0 0,11.25 30.234379,0 c 4.5052,0 8.05989,-1.67969 10.66406,-5.03906 2.34375,-3.02083 3.51562,-6.73177 3.51562,-11.13281 0,-4.375 -1.1849,-8.08594 -3.55468,-11.13282 -2.60417,-3.35938 -6.14584,-5.03906 -10.625,-5.03906 l -16.601566,0 c -1.328125,0 -2.356771,-0.45573 -3.085938,-1.36719 -0.703125,-0.91146 -1.054687,-2.00521 -1.054687,-3.28125 0,-1.30208 0.364583,-2.43489 1.09375,-3.39843 0.755208,-0.96354 1.770833,-1.44532 3.046875,-1.44532 l 28.203126,0 0,-11.17187 -30.156251,0 z m 35.390621,0 0,11.17187 28.24219,0 c 1.32813,0 2.36979,0.50782 3.125,1.52344 0.67709,0.91146 1.01563,2.01823 1.01563,3.32031 0,1.27604 -0.33854,2.34376 -1.01563,3.20313 -0.75521,0.96354 -1.79687,1.44531 -3.125,1.44531 l -14.375,0 c -4.71354,0 -8.28125,1.51042 -10.70312,4.53125 -2.10938,2.63021 -3.16407,6.05469 -3.16407,10.27344 l 0,17.53906 11.5625,0 0,-13.16406 33.35938,14.375 0,-12.53906 -22.03125,-9.57032 7.30469,0 c 4.53124,0 8.11198,-1.66666 10.74218,-5 2.3698,-2.99479 3.55469,-6.67968 3.55469,-11.05468 0,-4.34896 -1.19792,-8.03386 -3.59375,-11.05469 -2.63021,-3.33333 -6.19792,-5 -10.70312,-5 l -30.19532,0 z" />
    </g>
  </g>
</svg>
